<?xml version="1.0" encoding="UTF-8" standalone="no"?>
<!DOCTYPE svg PUBLIC "-//W3C//DTD SVG 1.1//EN" "http://www.w3.org/Graphics/SVG/1.1/DTD/svg11.dtd">
<svg width="100%" height="100%" viewBox="0 0 300 300" version="1.1" xmlns="http://www.w3.org/2000/svg" xmlns:xlink="http://www.w3.org/1999/xlink" xml:space="preserve" xmlns:affinity="https://www.affinity.studio/" style="fill-rule:evenodd;clip-rule:evenodd;stroke-linejoin:round;stroke-miterlimit:2;">
    <g id="Capa-9" affinity:id="Capa 9" transform="matrix(2.116103,0,0,2.116103,34.231913,24.171155)">
        <path d="M41.52,14.525C42.399,14.296 42.348,13.853 47.503,13.915C66.414,14.143 67.132,13.748 68.249,14.771C70.516,16.845 68.524,19.999 72.763,23.088C75.993,25.442 78.977,23.655 79.435,23.381C82.779,21.379 82.705,19.417 82.95,18.591C83.502,16.206 83.58,14.12 87.492,14.073C92.296,14.015 98.953,13.545 103.405,20.557C104.847,22.828 104.507,22.959 105.275,25.527C105.316,26.656 105.252,100.378 105.081,104.426C103.28,110.891 100.546,113.459 94.457,115.257C92.122,115.421 23.658,115.247 14.57,115.037C13.287,114.641 8.837,113.612 6.263,109.642C5.276,108.121 5.394,108.074 4.633,106.422C3.641,100.552 4.473,96.335 4.175,87.51C4.168,87.313 4.331,76.729 4.197,73.515C4.05,70.008 4.341,70.021 4.221,66.51C4.199,65.87 4.386,65.876 4.214,58.504C4.143,55.505 4.365,55.529 4.236,52.511C4.209,51.871 4.244,51.875 4.242,44.503C4.24,34.976 4.365,27.014 4.389,25.493C4.391,25.471 4.215,17.857 13.508,14.526C14.183,14.284 16.284,13.531 22.458,13.888C24.682,14.016 25.25,14.848 26.132,16.657C26.169,16.861 26.068,22.17 31.355,23.817C36.165,25.315 39.235,20.874 39.654,18.516C39.933,16.948 39.718,16.885 40.536,15.525C41.111,14.572 41.294,14.755 41.52,14.525ZM92.566,99.538C90.794,102.064 90.195,102.964 86.612,103.875C85.053,104.271 84.762,104.345 66.503,104.115C52.992,103.944 53.005,104.171 39.505,104.046C26.024,103.922 20.269,105.058 16.913,100.192C14.734,97.033 15.274,93.466 15.235,84.496C15.177,70.977 15.393,70.999 15.296,57.498C15.275,54.552 15.165,50.821 18.788,47.854C21.516,45.619 22.284,45.791 39.503,45.821C61.138,45.859 62.499,45.918 64.496,46.005C65.062,46.029 67.29,45.846 68.498,45.915C73.472,46.196 83.569,45.6 86.541,46.184C89.329,46.731 93.491,49.195 93.914,54.49C94.007,55.65 94.037,70.18 94.002,71.507C93.979,72.394 93.987,72.392 93.926,84.499C93.869,95.831 94.078,95.939 92.566,99.538Z" style="fill:rgb(0,41,108);fill-opacity:0.99;"/>
        <path d="M62.388,92.418C61.055,94.373 61.205,96.247 52.488,95.863C48.245,95.676 47.733,93.943 47.08,92.709C46.809,92.197 46.146,90.944 46.48,85.498C46.879,78.991 52.463,79.814 56.511,79.775C63.978,79.703 62.721,87.739 62.66,90.521C62.653,90.876 62.72,91.235 62.669,91.587C62.627,91.876 62.429,92.128 62.388,92.418Z" style="fill:rgb(0,41,108);fill-opacity:0.99;"/>
        <path d="M48.727,56.712C51.317,55.831 51.33,55.835 56.499,55.865C58.722,55.878 58.693,56.071 60.3,56.731C64.319,60.377 62.334,64.016 62.733,66.543C62.766,66.756 62.987,66.909 63.021,67.122C62.932,67.295 62.727,67.389 62.639,67.562C61.57,69.645 61.83,71.847 55.503,71.867C49.505,71.885 48.932,71.81 47.191,68.691C46.273,67.045 46.424,64.354 46.652,60.538C47.166,59.016 46.873,58.848 48.727,56.712Z" style="fill:rgb(0,41,108);fill-opacity:0.99;"/>
        <path d="M80.23,79.979C84.322,81.788 84.158,83.477 84.25,86.506C84.332,89.217 84.611,93.409 81.372,95.3C79.665,96.296 72.175,96.1 70.743,95.214C68.016,93.525 68.044,91.303 68.213,85.487C68.332,81.409 71.509,79.881 73.512,79.847C77.925,79.773 79.695,79.931 80.23,79.979Z" style="fill:rgb(0,41,108);fill-opacity:0.99;"/>
        <path d="M26.16,93.76C25.913,93.381 24.753,92.423 24.905,89.511C25.049,86.758 23.928,79.733 30.502,79.733C30.901,79.733 35.093,79.733 35.488,79.755C39.78,79.991 41.097,83.838 41.008,85.54C40.876,88.055 41.152,88.053 40.913,90.551C40.363,96.295 35.409,95.949 30.495,95.801C27.089,95.698 26.291,93.885 26.16,93.76Z" style="fill:rgb(0,41,108);fill-opacity:0.99;"/>
        <path d="M68.28,61.49C68.38,60.813 68.313,59.162 69.643,57.623C70.099,57.095 70.096,55.772 78.508,55.908C85.175,56.015 84.315,62.534 84.301,65.498C84.267,72.754 78.682,71.942 74.496,71.914C67.402,71.865 68.208,66.082 68.28,61.49Z" style="fill:rgb(0,41,108);fill-opacity:0.99;"/>
        <path d="M32.529,3.608L33.478,3.603C34.076,3.963 34.427,3.516 35.742,5.336C36.141,5.889 36.148,5.88 36.282,6.557C36.426,7.285 36.505,14.429 36.472,16.499C36.351,17.323 36.68,18.44 34.864,19.929C32.96,21.49 31.857,20.336 31.239,19.809C30.214,18.935 29.524,18.947 29.651,13.501C29.793,7.474 29.326,5.925 31.249,4.23C32.069,3.508 32.296,3.721 32.529,3.608Z" style="fill:rgb(0,41,108);fill-opacity:0.98;"/>
        <path d="M76.492,3.686L77.349,3.827C79.308,4.931 79.2,5.416 79.377,5.581C79.422,5.822 79.716,6.156 79.736,7.488C79.871,16.713 79.862,16.755 79.681,17.539C78.921,20.827 75.661,21.9 73.822,19.278C73.325,18.57 72.939,18.019 73.099,8.499C73.18,3.697 75.705,3.997 76.492,3.686Z" style="fill:rgb(0,41,108);fill-opacity:1;"/>
    </g>
</svg>
